<svg id="Layer_1" data-name="Layer 1" xmlns="http://www.w3.org/2000/svg" xmlns:xlink="http://www.w3.org/1999/xlink" viewBox="0 0 194.45 58.18"><defs><style>.cls-1{fill:none;}.cls-2{clip-path:url(#clip-path);}.cls-3{fill:#231f20;}.cls-4{fill:#fff;}</style><clipPath id="clip-path" transform="translate(-167.2 -37.52)"><rect class="cls-1" x="153.73" y="30.95" width="217.33" height="67.12" rx="9.11"/></clipPath></defs><path class="cls-3" d="M193.34,64.54H179.73v15.1h-7.4L167.2,74.5l.51-.51h6.37V58.89h13.61v-6l.52-.51,5.13,5.13ZM179.73,49.65v3.28h-5.65V44h16.8V38l.51-.52,5.14,5.14v7Z" transform="translate(-167.2 -37.52)"/><path class="cls-3" d="M202.12,79.64,197,74.5l.51-.51h6.37V38l.51-.52,5.14,5.14v37Z" transform="translate(-167.2 -37.52)"/><path class="cls-3" d="M225,79.64h-7.4L212.5,74.5,213,74h6.37V60.28h6.88l2.47,5.65H225ZM230,44a1.57,1.57,0,0,1,1.75,1.74v3.91H225v4.77h-5.65V44Zm2.31,30h6.58L233,60.48c3.08-1.33,5.14-3.49,5.14-7V44.82A8.61,8.61,0,0,0,237.05,40l5.18,5.19A6.57,6.57,0,0,1,243.78,50v8.68a6.89,6.89,0,0,1-5,7l6.17,14h-8l-5.13-5.14Z" transform="translate(-167.2 -37.52)"/><path class="cls-3" d="M275.21,79.64H251l-5.14-5.14.51-.51h23.17V68l.51-.51,5.14,5.14Zm-16.8-30v3h-5.65V44h16.8V38l.51-.52,5.14,5.14v7Zm8.48,2.46L272,57.25v7H258.41V68h-5.65V58.58h13.61v-6Z" transform="translate(-167.2 -37.52)"/><path class="cls-3" d="M302.74,64.54H289.13v15.1h-7.4l-5.14-5.14.52-.51h6.37V58.89h13.61v-6l.51-.51,5.14,5.13ZM289.13,49.65v3.28h-5.65V44h16.79V38l.51-.52,5.14,5.14v7Z" transform="translate(-167.2 -37.52)"/><path class="cls-3" d="M311.52,79.64l-5.14-5.14.52-.51h21.88V68l.51-.51,5.13,5.14v7Zm2.26-42.12,5.13,5.14V68h-5.65V38Z" transform="translate(-167.2 -37.52)"/><path class="cls-3" d="M334,37.94l.41-.42,5.14,5.14,3.49,7.91-1.43,3.24h-.42Zm16.23,41.7h-7.39l-5.14-5.14.51-.51h6.37V61.46L355.64,38l.87-.52,5.14,5.14L350.24,66.85Z" transform="translate(-167.2 -37.52)"/><path class="cls-4" d="M187.17,86.92v7.33h-2V86.92h-1.66V85.08h5.26v1.84Z" transform="translate(-167.2 -37.52)"/><path class="cls-4" d="M194.4,85.08l0,.94v7.3l0,.93h-2V90.56h-1.08v3.69h-1.95l0-.93V86l0-.94h1.95v3.64h1.08V85.08Z" transform="translate(-167.2 -37.52)"/><path class="cls-4" d="M197.54,90.56v1.86h2.34v1.83h-4.27V85.08h4.23v1.84h-2.3v1.8h2.06v1.84Z" transform="translate(-167.2 -37.52)"/><path class="cls-4" d="M202.13,85.08h1.92l.66,4.34h.06l.66-4.34H207l.66,4.34h.07l.65-4.34h1.8l-1.55,9.17h-1.87l-.59-4.13h-.06l-.58,4.13h-1.86Z" transform="translate(-167.2 -37.52)"/><path class="cls-4" d="M213,94.41c-2.4,0-2.46-2-2.46-3.7V88.63c0-1.65.06-3.7,2.46-3.7s2.47,1.86,2.47,3.7v2.08C215.47,92.55,215.4,94.41,213,94.41Zm-.54-3.29c0,.93,0,1.43.54,1.43s.54-.5.54-1.43V88.21c0-.92,0-1.42-.54-1.42s-.54.5-.54,1.42Z" transform="translate(-167.2 -37.52)"/><path class="cls-4" d="M218.74,94.41c-2.4,0-2.46-2-2.46-3.7V88.63c0-1.65.06-3.7,2.46-3.7s2.47,1.86,2.47,3.7v2.08C221.21,92.55,221.14,94.41,218.74,94.41Zm-.54-3.29c0,.93,0,1.43.54,1.43s.54-.5.54-1.43V88.21c0-.92,0-1.42-.54-1.42s-.54.5-.54,1.42Z" transform="translate(-167.2 -37.52)"/><path class="cls-4" d="M227.1,91.48c0,1.59-.46,2.77-2.36,2.77h-2.58V85.08h2.58c1.85,0,2.33,1,2.36,2.77ZM225.17,88c0-.64,0-1-.62-1h-.45v5.5h.45c.61,0,.62-.4.62-1Z" transform="translate(-167.2 -37.52)"/><path class="cls-4" d="M228.08,94.25V85.08H230v7.34h2.4v1.83Z" transform="translate(-167.2 -37.52)"/><path class="cls-4" d="M238.31,94.25h-2.06l-.14-.88h-1.54l-.12.88h-1.93l1.93-9.17h1.92Zm-3.47-2.59h1l-.46-3.17h-.06Z" transform="translate(-167.2 -37.52)"/><path class="cls-4" d="M238.77,93.32V85.08h1.59l1.7,4.38h.06V85.08h1.81l0,.94v7.3l0,.93H242.3l-1.69-4.36h-.07v3.43l0,.93h-1.8Z" transform="translate(-167.2 -37.52)"/><path class="cls-4" d="M250.06,91.48c0,1.59-.47,2.77-2.37,2.77h-2.57V85.08h2.57c1.85,0,2.34,1,2.37,2.77ZM248.13,88c0-.64,0-1-.63-1h-.45v5.5h.45c.62,0,.63-.4.63-1Z" transform="translate(-167.2 -37.52)"/><path class="cls-4" d="M252.42,90.92v.54c0,.84.37,1.27.94,1.27s.75-.35.75-.85-.32-.91-1.1-1.45l-.85-.58a2.56,2.56,0,0,1-1.29-2.32,2.39,2.39,0,0,1,2.53-2.6c1.33,0,2.5.79,2.5,2.83v.37h-1.7v-.24c0-.89-.32-1.28-.86-1.28a.67.67,0,0,0-.71.75c0,.31.11.62,1,1.2l.86.56A3.06,3.06,0,0,1,256,91.75a2.4,2.4,0,0,1-2.56,2.66,2.63,2.63,0,0,1-2.82-2.82v-.67Z" transform="translate(-167.2 -37.52)"/><path class="cls-4" d="M259.28,90.16l.46-1.38-1.21-.88.07-.2,1.51,0,.52-1.35h.25l.5,1.35,1.53,0,.06.2-1.22.88.47,1.38-.22.12-1.27-.82-1.22.82Z" transform="translate(-167.2 -37.52)"/><path class="cls-4" d="M267.35,92.48v.07h3.07v1.7h-4.79V92.47c1.65-1.87,2.85-3.49,2.85-5,0-.59-.18-.86-.59-.86s-.72.34-.72,1.39v.42h-1.5V88c0-2.34,1.23-3,2.39-3a2.3,2.3,0,0,1,2.32,2.6C270.38,89.69,268.77,91,267.35,92.48Z" transform="translate(-167.2 -37.52)"/><path class="cls-4" d="M273.57,94.41c-2.47,0-2.47-2-2.47-3.7V88.63c0-1.65,0-3.7,2.47-3.7s2.46,1.86,2.46,3.7v2.08C276,92.55,276,94.41,273.57,94.41ZM273,91.33c0,.92,0,1.42.54,1.42s.54-.5.54-1.42V88c0-.93,0-1.43-.54-1.43s-.54.5-.54,1.43Z" transform="translate(-167.2 -37.52)"/><path class="cls-4" d="M278.45,92.48v.07h3.06v1.7h-4.78V92.47c1.64-1.87,2.85-3.49,2.85-5,0-.59-.18-.86-.59-.86s-.72.34-.72,1.39v.42h-1.5V88c0-2.34,1.23-3,2.38-3a2.31,2.31,0,0,1,2.33,2.6C281.48,89.69,279.86,91,278.45,92.48Z" transform="translate(-167.2 -37.52)"/><path class="cls-4" d="M283.83,92.48v.07h3.06v1.7h-4.78V92.47c1.64-1.87,2.85-3.49,2.85-5,0-.59-.18-.86-.59-.86s-.72.34-.72,1.39v.42h-1.5V88c0-2.34,1.23-3,2.38-3a2.31,2.31,0,0,1,2.33,2.6C286.86,89.69,285.24,91,283.83,92.48Z" transform="translate(-167.2 -37.52)"/><path class="cls-4" d="M290.26,90.16l.46-1.38-1.2-.88.06-.2,1.51,0,.52-1.35h.25l.5,1.35,1.53,0,.07.2-1.22.88.46,1.38-.22.12-1.27-.82-1.22.82Z" transform="translate(-167.2 -37.52)"/><path class="cls-4" d="M303.11,91.48c0,1.59-.46,2.77-2.36,2.77h-2.58V85.08h2.58c1.85,0,2.33,1,2.36,2.77ZM301.19,88c0-.64,0-1-.63-1h-.45v5.5h.45c.61,0,.63-.4.63-1Z" transform="translate(-167.2 -37.52)"/><path class="cls-4" d="M306.41,94.41c-2.4,0-2.46-2-2.46-3.7V88.63c0-1.65.06-3.7,2.46-3.7s2.47,1.86,2.47,3.7v2.08C308.88,92.55,308.81,94.41,306.41,94.41Zm-.54-3.29c0,.93,0,1.43.54,1.43s.54-.5.54-1.43V88.21c0-.92,0-1.42-.54-1.42s-.54.5-.54,1.42Z" transform="translate(-167.2 -37.52)"/><path class="cls-4" d="M309.11,85.08h2.05l.63,3.22.26,1.77h.06l.26-1.77.6-3.22h1.93L313,94.25h-1.92Z" transform="translate(-167.2 -37.52)"/><path class="cls-4" d="M317.29,90.56v1.86h2.33v1.83h-4.27V85.08h4.23v1.84h-2.29v1.8h2v1.84Z" transform="translate(-167.2 -37.52)"/><path class="cls-4" d="M325.32,87.42a1.84,1.84,0,0,1-1.1,2v0c.67.18,1.1,1,1.1,2v1.4a3.7,3.7,0,0,0,.13,1.27v.12H323.6a2.29,2.29,0,0,1-.15-1V91.46c0-.75-.19-1-.8-1h-.27v2.91l0,.93h-1.95V85.08h2.64a2,2,0,0,1,2.23,2.27Zm-2.94,1.25h.35c.52,0,.71-.27.71-.87v-.17c0-.6-.19-.83-.71-.83h-.35Z" transform="translate(-167.2 -37.52)"/><path class="cls-4" d="M326.1,91.65h1.79v2.08c0,1.62-1,2-1.79,2v-.85a.78.78,0,0,0,.84-.72h-.84Z" transform="translate(-167.2 -37.52)"/><path class="cls-4" d="M335.74,91.48c0,1.59-.47,2.77-2.36,2.77H330.8V85.08h2.58c1.84,0,2.33,1,2.36,2.77ZM333.81,88c0-.64,0-1-.63-1h-.45v5.5h.45c.62,0,.63-.4.63-1Z" transform="translate(-167.2 -37.52)"/><path class="cls-4" d="M338.65,90.56v1.86H341v1.83h-4.27V85.08H341v1.84h-2.3v1.8h2.06v1.84Z" transform="translate(-167.2 -37.52)"/></svg>