<?xml version="1.0" encoding="utf-8"?>
<!-- Generator: Adobe Illustrator 26.0.3, SVG Export Plug-In . SVG Version: 6.00 Build 0)  -->
<svg version="1.1" id="Layer_1" xmlns="http://www.w3.org/2000/svg" xmlns:xlink="http://www.w3.org/1999/xlink" x="0px" y="0px"
	 viewBox="0 0 228 77.8" style="enable-background:new 0 0 228 77.8;" xml:space="preserve">
<style type="text/css">
	.st0{clip-path:url(#SVGID_00000034061790429466320290000010016923503939103159_);}
	.st1{clip-path:url(#SVGID_00000092433621059576766860000010607402007635734958_);}
	.st2{fill:#231F20;}
	.st3{font-family:'IndustryInc-3D';}
	.st4{font-size:12.6781px;}
	.st5{letter-spacing:-1;}
	.st6{fill:#FFFFFF;}
	.st7{font-family:'RailroadGothicATF';}
	.st8{font-size:3.1695px;}
	.st9{font-family:'AcierBATText-Solid';}
</style>
<g>
	<g>
		<defs>
			<path id="SVGID_1_" d="M89.4,14.8h49.1c1.2,0,2.2,1,2.2,2.2v12.1c0,1.2-1,2.2-2.2,2.2H89.4c-1.2,0-2.2-1-2.2-2.2V17
				C87.2,15.8,88.2,14.8,89.4,14.8z"/>
		</defs>
		<clipPath id="SVGID_00000029743611762527505970000000227784476411299474_">
			<use xlink:href="#SVGID_1_"  style="overflow:visible;"/>
		</clipPath>
		<g style="clip-path:url(#SVGID_00000029743611762527505970000000227784476411299474_);">
			<g>
				<defs>
					<rect id="SVGID_00000132789041652026718930000013110957668377202319_" x="85.9" y="13.5" width="56.1" height="19"/>
				</defs>
				<clipPath id="SVGID_00000075121054170969992550000006976657386920610219_">
					<use xlink:href="#SVGID_00000132789041652026718930000013110957668377202319_"  style="overflow:visible;"/>
				</clipPath>
				<g style="clip-path:url(#SVGID_00000075121054170969992550000006976657386920610219_);">
					
						<image style="overflow:visible;enable-background:new    ;" width="475" height="162" xlink:href="A43B85A2BBE1EE5B.png"  transform="matrix(0.1185 0 0 0.1185 85.8408 13.4344)">
					</image>
				</g>
			</g>
		</g>
	</g>
	<text transform="matrix(1 0 0 1 89.4991 25.5049)" class="st2 st3 st4">Firef</text>
	<text transform="matrix(1 0 0 1 123.8556 25.5049)" class="st2 st3 st4 st5">l</text>
	<text transform="matrix(1 0 0 1 129.7003 25.5049)" class="st2 st3 st4">y</text>
	<text transform="matrix(1 0 0 1 94.5275 30.3799)" class="st6 st7 st8">T</text>
	<text transform="matrix(1 0 0 1 95.8575 30.3799)" class="st6 st7 st8">h</text>
	<text transform="matrix(1 0 0 1 97.381 30.3799)" class="st6 st7 st8">e </text>
	<text transform="matrix(1 0 0 1 99.1237 30.3799)" class="st6 st7 st8">W</text>
	<text transform="matrix(1 0 0 1 101.1007 30.3799)" class="st6 st7 st8">ood</text>
	<text transform="matrix(1 0 0 1 105.3961 30.3799)" class="st6 st7 st8">l</text>
	<text transform="matrix(1 0 0 1 106.6476 30.3799)" class="st6 st7 st8">a</text>
	<text transform="matrix(1 0 0 1 108.0323 30.3799)" class="st6 st7 st8">n</text>
	<text transform="matrix(1 0 0 1 109.6022 30.3799)" class="st6 st7 st8">ds </text>
	<text transform="matrix(1 0 0 1 112.9572 30.3799)" class="st6 st9 st8">*</text>
	<text transform="matrix(1 0 0 1 114.2404 30.3799)" class="st6 st7 st8"> 2022 </text>
	<text transform="matrix(1 0 0 1 120.6066 30.3799)" class="st6 st9 st8">* </text>
	<text transform="matrix(1 0 0 1 122.6974 30.3799)" class="st6 st7 st8">D</text>
	<text transform="matrix(1 0 0 1 124.1588 30.3799)" class="st6 st7 st8">o</text>
	<text transform="matrix(1 0 0 1 125.5558 30.3799)" class="st6 st7 st8">ver, DE</text>
</g>
</svg>
